<mxfile host="app.diagrams.net" modified="2023-05-30T22:47:56.449Z" agent="Mozilla/5.0 (Windows NT 10.0; Win64; x64) AppleWebKit/537.36 (KHTML, like Gecko) Chrome/109.0.0.0 Safari/537.36" etag="XnMqqt6GGTPd0K-E2mTa" version="21.3.6" type="device">
  <diagram name="PÃ¡gina-1" id="rqAxOAgkyaD3_hQioitn">
    <mxGraphModel dx="874" dy="494" grid="1" gridSize="10" guides="1" tooltips="1" connect="1" arrows="1" fold="1" page="1" pageScale="1" pageWidth="827" pageHeight="1169" math="0" shadow="0">
      <root>
        <mxCell id="0" />
        <mxCell id="1" parent="0" />
        <mxCell id="Jc1YWThtL3dc1H24-kvR-1" value="Cliente" style="rounded=0;whiteSpace=wrap;html=1;" vertex="1" parent="1">
          <mxGeometry x="40" y="170" width="120" height="60" as="geometry" />
        </mxCell>
        <mxCell id="Jc1YWThtL3dc1H24-kvR-2" value="Proyecto" style="rounded=0;whiteSpace=wrap;html=1;" vertex="1" parent="1">
          <mxGeometry x="360" y="170" width="120" height="60" as="geometry" />
        </mxCell>
        <mxCell id="Jc1YWThtL3dc1H24-kvR-3" value="Desarrollador&lt;br&gt;" style="rounded=0;whiteSpace=wrap;html=1;" vertex="1" parent="1">
          <mxGeometry x="680" y="170" width="120" height="60" as="geometry" />
        </mxCell>
        <mxCell id="Jc1YWThtL3dc1H24-kvR-4" value="Nombre" style="ellipse;whiteSpace=wrap;html=1;" vertex="1" parent="1">
          <mxGeometry x="30" y="80" width="60" height="40" as="geometry" />
        </mxCell>
        <mxCell id="Jc1YWThtL3dc1H24-kvR-5" value="Direccion" style="ellipse;whiteSpace=wrap;html=1;" vertex="1" parent="1">
          <mxGeometry x="110" y="80" width="60" height="40" as="geometry" />
        </mxCell>
        <mxCell id="Jc1YWThtL3dc1H24-kvR-6" value="Correo" style="ellipse;whiteSpace=wrap;html=1;" vertex="1" parent="1">
          <mxGeometry x="10" y="270" width="60" height="40" as="geometry" />
        </mxCell>
        <mxCell id="Jc1YWThtL3dc1H24-kvR-7" value="Num tel" style="ellipse;whiteSpace=wrap;html=1;" vertex="1" parent="1">
          <mxGeometry x="130" y="270" width="60" height="40" as="geometry" />
        </mxCell>
        <mxCell id="Jc1YWThtL3dc1H24-kvR-8" value="ID" style="ellipse;whiteSpace=wrap;html=1;" vertex="1" parent="1">
          <mxGeometry x="70" y="300" width="60" height="40" as="geometry" />
        </mxCell>
        <mxCell id="Jc1YWThtL3dc1H24-kvR-9" value="" style="endArrow=none;html=1;rounded=0;" edge="1" parent="1" source="Jc1YWThtL3dc1H24-kvR-4" target="Jc1YWThtL3dc1H24-kvR-1">
          <mxGeometry width="50" height="50" relative="1" as="geometry">
            <mxPoint x="190" y="350" as="sourcePoint" />
            <mxPoint x="240" y="300" as="targetPoint" />
          </mxGeometry>
        </mxCell>
        <mxCell id="Jc1YWThtL3dc1H24-kvR-10" value="" style="endArrow=none;html=1;rounded=0;" edge="1" parent="1" source="Jc1YWThtL3dc1H24-kvR-5" target="Jc1YWThtL3dc1H24-kvR-1">
          <mxGeometry width="50" height="50" relative="1" as="geometry">
            <mxPoint x="200" y="360" as="sourcePoint" />
            <mxPoint x="250" y="310" as="targetPoint" />
          </mxGeometry>
        </mxCell>
        <mxCell id="Jc1YWThtL3dc1H24-kvR-11" value="" style="endArrow=none;html=1;rounded=0;" edge="1" parent="1" source="Jc1YWThtL3dc1H24-kvR-6" target="Jc1YWThtL3dc1H24-kvR-1">
          <mxGeometry width="50" height="50" relative="1" as="geometry">
            <mxPoint x="210" y="370" as="sourcePoint" />
            <mxPoint x="260" y="320" as="targetPoint" />
          </mxGeometry>
        </mxCell>
        <mxCell id="Jc1YWThtL3dc1H24-kvR-12" value="" style="endArrow=none;html=1;rounded=0;" edge="1" parent="1" source="Jc1YWThtL3dc1H24-kvR-7" target="Jc1YWThtL3dc1H24-kvR-1">
          <mxGeometry width="50" height="50" relative="1" as="geometry">
            <mxPoint x="220" y="380" as="sourcePoint" />
            <mxPoint x="270" y="330" as="targetPoint" />
          </mxGeometry>
        </mxCell>
        <mxCell id="Jc1YWThtL3dc1H24-kvR-13" value="" style="endArrow=none;html=1;rounded=0;" edge="1" parent="1" source="Jc1YWThtL3dc1H24-kvR-8" target="Jc1YWThtL3dc1H24-kvR-1">
          <mxGeometry width="50" height="50" relative="1" as="geometry">
            <mxPoint x="230" y="390" as="sourcePoint" />
            <mxPoint x="280" y="340" as="targetPoint" />
          </mxGeometry>
        </mxCell>
        <mxCell id="Jc1YWThtL3dc1H24-kvR-14" value="Fecha Fin" style="ellipse;whiteSpace=wrap;html=1;" vertex="1" parent="1">
          <mxGeometry x="390" y="280" width="60" height="40" as="geometry" />
        </mxCell>
        <mxCell id="Jc1YWThtL3dc1H24-kvR-15" value="Fecha inc" style="ellipse;whiteSpace=wrap;html=1;" vertex="1" parent="1">
          <mxGeometry x="310" y="260" width="60" height="40" as="geometry" />
        </mxCell>
        <mxCell id="Jc1YWThtL3dc1H24-kvR-16" value="Presupuesto&lt;br&gt;" style="ellipse;whiteSpace=wrap;html=1;" vertex="1" parent="1">
          <mxGeometry x="340" y="70" width="80" height="40" as="geometry" />
        </mxCell>
        <mxCell id="Jc1YWThtL3dc1H24-kvR-17" value="Estado" style="ellipse;whiteSpace=wrap;html=1;" vertex="1" parent="1">
          <mxGeometry x="470" y="260" width="60" height="40" as="geometry" />
        </mxCell>
        <mxCell id="Jc1YWThtL3dc1H24-kvR-18" value="Completado?&lt;br&gt;" style="ellipse;whiteSpace=wrap;html=1;" vertex="1" parent="1">
          <mxGeometry x="440" y="70" width="80" height="40" as="geometry" />
        </mxCell>
        <mxCell id="Jc1YWThtL3dc1H24-kvR-19" value="" style="endArrow=none;html=1;rounded=0;" edge="1" parent="1" source="Jc1YWThtL3dc1H24-kvR-18" target="Jc1YWThtL3dc1H24-kvR-2">
          <mxGeometry width="50" height="50" relative="1" as="geometry">
            <mxPoint x="55" y="400" as="sourcePoint" />
            <mxPoint x="102" y="230" as="targetPoint" />
          </mxGeometry>
        </mxCell>
        <mxCell id="Jc1YWThtL3dc1H24-kvR-20" value="" style="endArrow=none;html=1;rounded=0;" edge="1" parent="1" source="Jc1YWThtL3dc1H24-kvR-17" target="Jc1YWThtL3dc1H24-kvR-2">
          <mxGeometry width="50" height="50" relative="1" as="geometry">
            <mxPoint x="65" y="410" as="sourcePoint" />
            <mxPoint x="112" y="240" as="targetPoint" />
          </mxGeometry>
        </mxCell>
        <mxCell id="Jc1YWThtL3dc1H24-kvR-21" value="" style="endArrow=none;html=1;rounded=0;" edge="1" parent="1" source="Jc1YWThtL3dc1H24-kvR-2" target="Jc1YWThtL3dc1H24-kvR-15">
          <mxGeometry width="50" height="50" relative="1" as="geometry">
            <mxPoint x="75" y="420" as="sourcePoint" />
            <mxPoint x="122" y="250" as="targetPoint" />
          </mxGeometry>
        </mxCell>
        <mxCell id="Jc1YWThtL3dc1H24-kvR-22" value="" style="endArrow=none;html=1;rounded=0;" edge="1" parent="1" source="Jc1YWThtL3dc1H24-kvR-2" target="Jc1YWThtL3dc1H24-kvR-14">
          <mxGeometry width="50" height="50" relative="1" as="geometry">
            <mxPoint x="390" y="230" as="sourcePoint" />
            <mxPoint x="370" y="245" as="targetPoint" />
          </mxGeometry>
        </mxCell>
        <mxCell id="Jc1YWThtL3dc1H24-kvR-23" value="" style="endArrow=none;html=1;rounded=0;" edge="1" parent="1" source="Jc1YWThtL3dc1H24-kvR-2" target="Jc1YWThtL3dc1H24-kvR-16">
          <mxGeometry width="50" height="50" relative="1" as="geometry">
            <mxPoint x="400" y="240" as="sourcePoint" />
            <mxPoint x="380" y="255" as="targetPoint" />
          </mxGeometry>
        </mxCell>
        <mxCell id="Jc1YWThtL3dc1H24-kvR-24" value="Nombre" style="ellipse;whiteSpace=wrap;html=1;" vertex="1" parent="1">
          <mxGeometry x="710" y="80" width="60" height="40" as="geometry" />
        </mxCell>
        <mxCell id="Jc1YWThtL3dc1H24-kvR-25" value="Skill&lt;br&gt;" style="ellipse;whiteSpace=wrap;html=1;" vertex="1" parent="1">
          <mxGeometry x="640" y="270" width="60" height="40" as="geometry" />
        </mxCell>
        <mxCell id="Jc1YWThtL3dc1H24-kvR-26" value="Available?&lt;br&gt;" style="ellipse;whiteSpace=wrap;html=1;" vertex="1" parent="1">
          <mxGeometry x="760" y="270" width="60" height="40" as="geometry" />
        </mxCell>
        <mxCell id="Jc1YWThtL3dc1H24-kvR-27" value="" style="endArrow=none;html=1;rounded=0;" edge="1" parent="1" source="Jc1YWThtL3dc1H24-kvR-25" target="Jc1YWThtL3dc1H24-kvR-3">
          <mxGeometry width="50" height="50" relative="1" as="geometry">
            <mxPoint x="440" y="380" as="sourcePoint" />
            <mxPoint x="490" y="330" as="targetPoint" />
          </mxGeometry>
        </mxCell>
        <mxCell id="Jc1YWThtL3dc1H24-kvR-28" value="" style="endArrow=none;html=1;rounded=0;" edge="1" parent="1" source="Jc1YWThtL3dc1H24-kvR-24" target="Jc1YWThtL3dc1H24-kvR-3">
          <mxGeometry width="50" height="50" relative="1" as="geometry">
            <mxPoint x="440" y="380" as="sourcePoint" />
            <mxPoint x="490" y="330" as="targetPoint" />
          </mxGeometry>
        </mxCell>
        <mxCell id="Jc1YWThtL3dc1H24-kvR-29" value="" style="endArrow=none;html=1;rounded=0;" edge="1" parent="1" source="Jc1YWThtL3dc1H24-kvR-26" target="Jc1YWThtL3dc1H24-kvR-3">
          <mxGeometry width="50" height="50" relative="1" as="geometry">
            <mxPoint x="693" y="282" as="sourcePoint" />
            <mxPoint x="729" y="230" as="targetPoint" />
          </mxGeometry>
        </mxCell>
        <mxCell id="Jc1YWThtL3dc1H24-kvR-30" value="Tiene" style="rhombus;whiteSpace=wrap;html=1;" vertex="1" parent="1">
          <mxGeometry x="220" y="160" width="80" height="80" as="geometry" />
        </mxCell>
        <mxCell id="Jc1YWThtL3dc1H24-kvR-31" value="1.n&lt;br&gt;" style="endArrow=none;html=1;rounded=0;" edge="1" parent="1" source="Jc1YWThtL3dc1H24-kvR-1" target="Jc1YWThtL3dc1H24-kvR-30">
          <mxGeometry width="50" height="50" relative="1" as="geometry">
            <mxPoint x="220" y="280" as="sourcePoint" />
            <mxPoint x="270" y="230" as="targetPoint" />
          </mxGeometry>
        </mxCell>
        <mxCell id="Jc1YWThtL3dc1H24-kvR-32" value="1.1" style="endArrow=none;html=1;rounded=0;" edge="1" parent="1" source="Jc1YWThtL3dc1H24-kvR-30" target="Jc1YWThtL3dc1H24-kvR-2">
          <mxGeometry width="50" height="50" relative="1" as="geometry">
            <mxPoint x="410" y="80" as="sourcePoint" />
            <mxPoint x="460" y="30" as="targetPoint" />
          </mxGeometry>
        </mxCell>
        <mxCell id="Jc1YWThtL3dc1H24-kvR-34" value="Involucra" style="rhombus;whiteSpace=wrap;html=1;" vertex="1" parent="1">
          <mxGeometry x="550" y="160" width="80" height="80" as="geometry" />
        </mxCell>
        <mxCell id="Jc1YWThtL3dc1H24-kvR-35" value="1.n" style="endArrow=none;html=1;rounded=0;" edge="1" parent="1" source="Jc1YWThtL3dc1H24-kvR-2" target="Jc1YWThtL3dc1H24-kvR-34">
          <mxGeometry width="50" height="50" relative="1" as="geometry">
            <mxPoint x="480" y="360" as="sourcePoint" />
            <mxPoint x="530" y="310" as="targetPoint" />
          </mxGeometry>
        </mxCell>
        <mxCell id="Jc1YWThtL3dc1H24-kvR-36" value="1.1" style="endArrow=none;html=1;rounded=0;" edge="1" parent="1" source="Jc1YWThtL3dc1H24-kvR-34" target="Jc1YWThtL3dc1H24-kvR-3">
          <mxGeometry width="50" height="50" relative="1" as="geometry">
            <mxPoint x="560" y="310" as="sourcePoint" />
            <mxPoint x="610" y="260" as="targetPoint" />
          </mxGeometry>
        </mxCell>
      </root>
    </mxGraphModel>
  </diagram>
</mxfile>
